<?xml version="1.0" encoding="utf-8"?><svg version="1.1" id="Layer_1" xmlns="http://www.w3.org/2000/svg" xmlns:xlink="http://www.w3.org/1999/xlink" x="0px" y="0px" viewBox="0 0 122.88 97.7" style="enable-background:new 0 0 122.88 97.7" xml:space="preserve"><style type="text/css">.st0{fill-rule:evenodd;clip-rule:evenodd;}</style><g><path class="st0" d="M23.7,47.26c2.89,5.22,6.22,10.22,10.56,14.8C38.61,66.66,44,70.84,51,74.41c0.52,0.26,1.01,0.26,1.45,0.08 c0.67-0.26,1.34-0.8,2.02-1.47c0.52-0.52,1.16-1.34,1.84-2.25c2.69-3.53,6.01-7.93,10.72-5.74c0.1,0.05,0.18,0.1,0.29,0.16 l15.67,9.01c0.05,0.02,0.1,0.08,0.16,0.1c2.07,1.42,2.92,3.61,2.95,6.09c0,2.53-0.93,5.37-2.3,7.77c-1.81,3.18-4.46,5.27-7.54,6.67 c-2.92,1.34-6.17,2.07-9.3,2.53c-4.91,0.72-9.5,0.26-14.21-1.19c-4.6-1.42-9.22-3.77-14.28-6.9l-0.36-0.23 c-2.33-1.45-4.83-3-7.29-4.83c-9-6.79-18.17-16.6-24.14-27.4c-5.01-9.07-7.75-18.85-6.25-28.17c0.83-5.12,3.02-9.76,6.84-12.84 c3.33-2.69,7.83-4.15,13.63-3.64c0.67,0.05,1.26,0.44,1.57,1.01l10.05,16.99c1.47,1.91,1.65,3.8,0.85,5.68 c-0.67,1.55-2.02,2.97-3.84,4.31c-0.54,0.46-1.19,0.93-1.86,1.42c-2.25,1.63-4.81,3.51-3.92,5.74L23.7,47.26L23.7,47.26L23.7,47.26 z M51.68,25.64l5.79-0.4c0.12,1.03,0.38,1.82,0.77,2.35c0.63,0.87,1.52,1.3,2.69,1.3c0.87,0,1.54-0.22,2.01-0.67 c0.47-0.45,0.7-0.96,0.7-1.55c0-0.56-0.22-1.06-0.67-1.5c-0.45-0.44-1.49-0.86-3.12-1.25c-2.67-0.66-4.57-1.53-5.71-2.61 c-1.15-1.09-1.72-2.47-1.72-4.16c0-1.11,0.29-2.15,0.88-3.14c0.59-0.98,1.47-1.76,2.65-2.32c1.18-0.56,2.79-0.84,4.84-0.84 c2.52,0,4.44,0.51,5.76,1.54c1.32,1.02,2.1,2.66,2.36,4.89l-5.74,0.37c-0.15-0.97-0.47-1.68-0.96-2.12 c-0.49-0.44-1.16-0.66-2.02-0.66c-0.71,0-1.24,0.17-1.6,0.49c-0.36,0.33-0.54,0.73-0.54,1.2c0,0.34,0.15,0.65,0.44,0.92 c0.29,0.29,0.97,0.55,2.04,0.79c2.66,0.63,4.56,1.26,5.71,1.91c1.15,0.64,1.99,1.44,2.51,2.39c0.52,0.95,0.78,2.01,0.78,3.19 c0,1.38-0.35,2.66-1.05,3.82c-0.7,1.17-1.68,2.05-2.93,2.65c-1.25,0.6-2.83,0.9-4.74,0.9c-3.35,0-5.67-0.71-6.96-2.12 C52.58,29.61,51.85,27.81,51.68,25.64L51.68,25.64z M71.84,22c0-3.52,0.89-6.25,2.69-8.22c1.79-1.96,4.29-2.94,7.48-2.94 c3.28,0,5.8,0.96,7.58,2.89c1.77,1.92,2.66,4.62,2.66,8.09c0,2.52-0.39,4.59-1.16,6.2c-0.78,1.61-1.89,2.87-3.36,3.76 c-1.46,0.9-3.29,1.35-5.47,1.35c-2.22,0-4.06-0.39-5.52-1.16c-1.45-0.78-2.64-2-3.54-3.68C72.29,26.62,71.84,24.52,71.84,22 L71.84,22z M77.93,22.03c0,2.18,0.37,3.74,1.11,4.69c0.74,0.95,1.75,1.43,3.02,1.43c1.31,0,2.32-0.47,3.04-1.4 c0.72-0.93,1.08-2.61,1.08-5.01c0-2.03-0.38-3.51-1.12-4.45c-0.75-0.94-1.77-1.41-3.04-1.41c-1.22,0-2.21,0.48-2.95,1.43 C78.3,18.26,77.93,19.84,77.93,22.03L77.93,22.03z M94.46,25.64l5.79-0.4c0.12,1.03,0.38,1.82,0.77,2.35 c0.63,0.87,1.52,1.3,2.69,1.3c0.87,0,1.54-0.22,2.01-0.67c0.47-0.45,0.7-0.96,0.7-1.55c0-0.56-0.22-1.06-0.67-1.5 c-0.45-0.44-1.49-0.86-3.12-1.25c-2.67-0.66-4.57-1.53-5.71-2.61c-1.15-1.09-1.72-2.47-1.72-4.16c0-1.11,0.29-2.15,0.88-3.14 c0.59-0.98,1.47-1.76,2.65-2.32c1.18-0.56,2.79-0.84,4.84-0.84c2.52,0,4.44,0.51,5.76,1.54c1.32,1.02,2.1,2.66,2.36,4.89 l-5.74,0.37c-0.15-0.97-0.47-1.68-0.96-2.12c-0.49-0.44-1.16-0.66-2.02-0.66c-0.71,0-1.24,0.17-1.6,0.49 c-0.36,0.33-0.54,0.73-0.54,1.2c0,0.34,0.15,0.65,0.44,0.92c0.29,0.29,0.97,0.55,2.04,0.79c2.66,0.63,4.56,1.26,5.71,1.91 c1.15,0.64,1.99,1.44,2.51,2.39c0.52,0.95,0.78,2.01,0.78,3.19c0,1.38-0.35,2.66-1.05,3.82c-0.7,1.17-1.68,2.05-2.93,2.65 c-1.25,0.6-2.83,0.9-4.74,0.9c-3.35,0-5.67-0.71-6.96-2.12C95.37,29.61,94.63,27.81,94.46,25.64L94.46,25.64z M51.19,0 c-2.8,0-5.19,0.98-7.18,2.95c-1.99,1.97-2.95,4.36-2.95,7.18v24.71c0,2.82,0.98,5.22,2.95,7.18s4.36,2.95,7.18,2.95h15.24 c-0.58,2.24-1.3,4.36-2.19,6.36c-0.88,2.02-2.37,3.94-4.43,5.77c3.96-1.03,7.48-2.57,10.59-4.61c3.09-2.02,5.77-4.54,7.99-7.53 h34.36c2.8,0,5.19-1.01,7.18-2.95c1.99-1.97,2.95-4.36,2.95-7.19v-24.7c0-2.8-0.98-5.19-2.95-7.18C117.96,0.96,115.56,0,112.74,0 C103.74,0,60.19,0,51.19,0L51.19,0L51.19,0z"/></g></svg>