<?xml version="1.0" encoding="UTF-8"?> <svg xmlns="http://www.w3.org/2000/svg" xmlns:xlink="http://www.w3.org/1999/xlink" id="Layer_1" data-name="Layer 1" viewBox="0 0 390 16"><defs><style> .cls-1 { fill: #003256; } .cls-2, .cls-3 { fill: none; } .cls-3 { clip-path: url(#clippath); } .cls-4 { fill: #231f20; } </style><clipPath id="clippath"><rect class="cls-2" x=".42" y=".06" width="389.15" height="15.89"></rect></clipPath></defs><g class="cls-3"><path class="cls-1" d="m34.92,3.86c1.3,0,2.55.58,3.32,1.66V.82c-1.12-.48-2.24-.76-3.46-.76-2.05,0-4.11.92-5.54,2.44-1.39,1.48-2.14,3.46-2.14,5.52,0,2.24.74,4.2,2.34,5.7,1.51,1.42,3.44,2.22,5.47,2.22,1.18,0,2.08-.3,3.34-.7v-4.7c-.79.98-2.03,1.6-3.26,1.6-2.36,0-3.94-1.72-3.94-4.1s1.56-4.18,3.88-4.18m-12.12,11.69h3.78V.46h-3.78v15.09Zm-8.67-3.32h-.85V3.78h.89c2.44,0,4.15,1.52,4.15,4.22,0,2.94-1.93,4.22-4.19,4.22M14.86.46h-5.37v15.09h5.37c4.04,0,7.4-3.3,7.4-7.54S18.92.46,14.86.46M.42,15.54h3.78v-5.92h4.15v-3.32h-4.15v-2.52h4.58V.46H.42v15.09Z"></path><path class="cls-4" d="m387.76,11.08c.43,0,.8-.14,1.05-.25l-.19-.63c-.17.08-.37.17-.58.17-.53,0-.71-.23-.71-.69,0-.15.01-.27.03-.41l.65-3.18h1.43l.14-.71h-1.41l.31-1.53h-.74l-.41,1.53-.87.06-.13.65h.81l-.65,3.13c-.02.21-.06.39-.06.62,0,.69.35,1.23,1.33,1.23m-7.9-.14h.87l.79-3.93c.7-.7,1.24-1.01,1.67-1.01.57,0,.83.3.83.86,0,.19-.03.35-.09.65l-.69,3.43h.87l.71-3.55c.07-.31.09-.5.09-.77,0-.86-.38-1.38-1.31-1.38-.7,0-1.32.42-1.95.97h-.04l.08-.83h-.72l-1.1,5.56Zm-4.71-3.19c.29-1.1,1.09-1.81,1.9-1.81s1.08.61,1.08,1.24c0,.22-.02.39-.06.57h-2.92Zm-.97,1.01c0,1.49.87,2.32,2.18,2.32.72,0,1.35-.27,1.8-.59l-.34-.58c-.35.26-.81.48-1.25.48-.97,0-1.72-.61-1.51-2.04h3.62c.07-.21.19-.64.19-1.09,0-1.15-.47-2.01-1.71-2.01-1.45,0-2.97,1.42-2.97,3.51m-9.45,2.19h.87l.79-3.93c.65-.7,1.24-1.01,1.57-1.01.55,0,.8.3.8.86,0,.19-.04.35-.09.65l-.69,3.43h.87l.79-3.93c.66-.7,1.25-1.01,1.57-1.01.55,0,.81.3.81.86,0,.19-.03.35-.09.65l-.7,3.43h.88l.71-3.55c.06-.31.09-.5.09-.77,0-.86-.39-1.38-1.32-1.38-.57,0-1.26.41-1.97,1.09-.08-.61-.4-1.09-1.28-1.09-.58,0-1.25.42-1.83.97h-.04l.08-.83h-.72l-1.1,5.56Zm-6.18,0h.87l.79-3.93c.7-.7,1.24-1.01,1.67-1.01.57,0,.82.3.82.86,0,.19-.03.35-.09.65l-.69,3.43h.87l.71-3.55c.07-.31.09-.5.09-.77,0-.86-.38-1.38-1.32-1.38-.7,0-1.32.42-1.94.97h-.05l.08-.83h-.72l-1.1,5.56Zm-4.15,0h.87l.7-3.51c.47-.9,1.09-1.4,1.64-1.4.21,0,.37.03.48.09l.31-.78c-.16-.07-.32-.1-.53-.1-.69,0-1.28.53-1.73,1.2h-.05l.13-1.06h-.72l-1.1,5.56Zm-4.71-3.19c.29-1.1,1.09-1.81,1.9-1.81s1.08.61,1.08,1.24c0,.22-.02.39-.06.57h-2.92Zm-.97,1.01c0,1.49.87,2.32,2.18,2.32.72,0,1.35-.27,1.8-.59l-.34-.58c-.35.26-.81.48-1.25.48-.97,0-1.72-.61-1.51-2.04h3.62c.07-.21.19-.64.19-1.09,0-1.15-.47-2.01-1.71-2.01-1.45,0-2.97,1.42-2.97,3.51m-4.22,2.19h1.05l2.96-5.56h-.88l-1.64,3.21c-.29.55-.56,1.11-.82,1.66h-.04c-.06-.54-.1-1.12-.16-1.66l-.41-3.21h-.87l.81,5.56Zm-5.02-.59c-.77,0-1.19-.55-1.19-1.55,0-1.56,1.01-2.83,2.03-2.83.77,0,1.19.56,1.19,1.57,0,1.56-1,2.81-2.03,2.81m-.09.73c1.52,0,3.01-1.5,3.01-3.6,0-1.38-.79-2.23-1.99-2.23-1.52,0-3,1.5-3,3.6,0,1.39.78,2.23,1.98,2.23m-5.99,0c.86,0,1.58-.31,2.13-.77l.65-3.25h-2.36l-.15.73h1.55l-.42,2.07c-.3.25-.73.46-1.28.46-1.44,0-1.99-1.02-1.99-2.36,0-1.82,1.14-3.9,3.03-3.9.61,0,1.02.33,1.3.81l.63-.47c-.38-.64-.99-1.11-1.89-1.11-2.46,0-3.99,2.37-3.99,4.75,0,1.83.97,3.03,2.78,3.03m-7.59,0c.43,0,.75-.4.75-.79,0-.33-.19-.58-.53-.58-.43,0-.77.41-.77.8,0,.33.21.57.54.57m-4.4,0c1.52,0,2.61-.96,2.61-2.3,0-.83-.41-1.34-1.13-1.76l-.87-.52c-.55-.33-.97-.64-.97-1.22s.52-1.21,1.36-1.21c.7,0,1.22.35,1.61.81l.58-.53c-.47-.61-1.24-1.05-2.13-1.05-1.35,0-2.33.95-2.33,2.08,0,.85.51,1.37,1.15,1.76l.87.53c.56.34.94.69.94,1.24,0,.86-.7,1.42-1.61,1.42-.84,0-1.49-.4-1.93-1.06l-.65.49c.61.89,1.48,1.33,2.5,1.33m-4.91,0c.43,0,.75-.4.75-.79,0-.33-.19-.58-.53-.58-.43,0-.77.41-.77.8,0,.33.21.57.54.57m-6.95-3.43c-.07.38-.11.74-.11,1.06,0,1.56.84,2.37,2.36,2.37,1.34,0,2.39-.84,2.81-3.01l.94-4.63h-.87l-.93,4.6c-.32,1.64-1.05,2.28-1.91,2.28-1.05,0-1.52-.61-1.52-1.68,0-.27.03-.56.1-.9l.86-4.29h-.89l-.84,4.21Zm-7.32.1c.28-1.1,1.09-1.81,1.9-1.81s1.08.61,1.08,1.24c0,.22-.02.39-.06.57h-2.92Zm-.97,1.01c0,1.49.87,2.32,2.18,2.32.72,0,1.35-.27,1.8-.59l-.34-.58c-.35.26-.81.48-1.25.48-.97,0-1.71-.61-1.51-2.04h3.62c.07-.21.19-.64.19-1.09,0-1.15-.47-2.01-1.71-2.01-1.45,0-2.97,1.42-2.97,3.51m-6.27,2.19h.87l.79-3.93c.7-.7,1.24-1.01,1.67-1.01.57,0,.82.3.82.86,0,.19-.03.35-.09.65l-.69,3.43h.87l.71-3.55c.07-.31.09-.5.09-.77,0-.86-.38-1.38-1.31-1.38-.68,0-1.28.4-1.91.94h-.04l.18-.69.55-2.69h-.88l-1.63,8.14Zm-2.23.14c.43,0,.8-.14,1.05-.25l-.19-.63c-.17.08-.37.17-.58.17-.53,0-.71-.23-.71-.69,0-.15.01-.27.03-.41l.65-3.18h1.43l.14-.71h-1.41l.31-1.53h-.74l-.41,1.53-.87.06-.12.65h.81l-.65,3.13c-.02.21-.06.39-.06.62,0,.69.35,1.23,1.33,1.23m-6.8-4.99h.72l-.97,4.85h.87l.97-4.85h1.13l.14-.71h-1.12l.19-.95c.13-.65.43-1.06.94-1.06.26,0,.46.09.62.19l.31-.63c-.27-.16-.58-.27-.98-.27-.94,0-1.53.67-1.76,1.8l-.18.93-.74.06-.13.65Zm-4.3,4.26c-.77,0-1.19-.55-1.19-1.55,0-1.56,1.01-2.83,2.02-2.83.77,0,1.19.56,1.19,1.57,0,1.56-1,2.81-2.03,2.81m-.09.73c1.52,0,3.01-1.5,3.01-3.6,0-1.38-.79-2.23-1.99-2.23-1.52,0-3,1.5-3,3.6,0,1.39.78,2.23,1.98,2.23m-6.22,0c.43,0,.8-.14,1.05-.25l-.19-.63c-.17.08-.37.17-.58.17-.53,0-.71-.23-.71-.69,0-.15.01-.27.03-.41l.65-3.18h1.43l.14-.71h-1.41l.31-1.53h-.74l-.41,1.53-.87.06-.13.65h.81l-.65,3.13c-.02.21-.06.39-.06.62,0,.69.35,1.23,1.33,1.23m-2.78-6.85c.35,0,.66-.28.66-.65,0-.33-.26-.53-.56-.53-.35,0-.66.29-.66.66,0,.33.26.52.56.52m-1.85,6.71h.87l1.12-5.56h-.88l-1.11,5.56Zm-4.31-.59c-.62,0-1.02-.46-1.02-1.42,0-1.53,1.03-2.95,2.14-2.95.42,0,.81.24,1.13.82l-.5,2.48c-.56.72-1.17,1.06-1.75,1.06m2.44-4.29h-.03c-.27-.49-.72-.81-1.32-.81-1.55,0-3.01,1.68-3.01,3.82,0,1.3.63,2.01,1.6,2.01.7,0,1.39-.39,1.93-.96h.04l-.09.82h.72l1.65-8.14h-.88l-.43,2.17-.18,1.09Zm-9.17,1.69c.29-1.1,1.09-1.81,1.9-1.81s1.08.61,1.08,1.24c0,.22-.02.39-.06.57h-2.92Zm-.97,1.01c0,1.49.87,2.32,2.18,2.32.72,0,1.35-.27,1.8-.59l-.34-.58c-.35.26-.81.48-1.25.48-.97,0-1.72-.61-1.51-2.04h3.62c.07-.21.19-.64.19-1.09,0-1.15-.47-2.01-1.71-2.01-1.45,0-2.97,1.42-2.97,3.51m-4.15,2.19h.87l.7-3.51c.47-.9,1.09-1.4,1.63-1.4.21,0,.37.03.48.09l.31-.78c-.16-.07-.32-.1-.53-.1-.68,0-1.28.53-1.73,1.2h-.04l.12-1.06h-.72l-1.1,5.56Zm-3.03.14c.81,0,1.38-.34,1.79-.65l-.39-.57c-.34.26-.74.49-1.24.49-.88,0-1.32-.55-1.32-1.55,0-1.52,1.04-2.83,2.15-2.83.43,0,.7.16.98.5l.51-.55c-.33-.38-.78-.67-1.44-.67-1.61,0-3.1,1.53-3.1,3.6,0,1.42.83,2.23,2.05,2.23m-8.42-.73c-.62,0-1.02-.46-1.02-1.42,0-1.53,1.03-2.95,2.14-2.95.42,0,.81.24,1.13.82l-.5,2.48c-.56.72-1.17,1.06-1.75,1.06m2.44-4.29h-.03c-.27-.49-.72-.81-1.32-.81-1.54,0-3.01,1.68-3.01,3.82,0,1.3.63,2.01,1.6,2.01.7,0,1.4-.39,1.93-.96h.04l-.09.82h.72l1.65-8.14h-.88l-.43,2.17-.18,1.09Zm-10.67,4.88h.87l.79-3.93c.7-.7,1.23-1.01,1.67-1.01.57,0,.82.3.82.86,0,.19-.03.35-.09.65l-.69,3.43h.87l.71-3.55c.07-.31.09-.5.09-.77,0-.86-.38-1.38-1.32-1.38-.7,0-1.32.42-1.94.97h-.05l.08-.83h-.72l-1.1,5.56Zm-4.32-.59c-.62,0-1.02-.46-1.02-1.42,0-1.53,1.03-2.95,2.14-2.95.42,0,.81.24,1.13.82l-.5,2.48c-.55.72-1.17,1.06-1.75,1.06m-.32.73c.7,0,1.39-.39,1.93-.96h.04l-.09.82h.72l1.11-5.56h-.71l-.22.69h-.04c-.26-.5-.74-.83-1.34-.83-1.54,0-3.01,1.68-3.01,3.82,0,1.3.63,2.01,1.6,2.01m-9.83-.14h.87l.79-3.93c.7-.7,1.23-1.01,1.67-1.01.57,0,.82.3.82.86,0,.19-.03.35-.09.65l-.69,3.43h.87l.71-3.55c.07-.31.09-.5.09-.77,0-.86-.38-1.38-1.32-1.38-.68,0-1.28.4-1.91.94h-.05l.18-.69.55-2.69h-.88l-1.63,8.14Zm-2.23.14c.43,0,.8-.14,1.05-.25l-.19-.63c-.17.08-.37.17-.58.17-.53,0-.71-.23-.71-.69,0-.15.01-.27.03-.41l.65-3.18h1.43l.14-.71h-1.41l.31-1.53h-.74l-.41,1.53-.87.06-.13.65h.81l-.65,3.13c-.02.21-.06.39-.06.62,0,.69.35,1.23,1.33,1.23m-2.78-6.85c.35,0,.66-.28.66-.65,0-.33-.26-.53-.56-.53-.35,0-.66.29-.66.66,0,.33.26.52.56.52m-1.85,6.71h.87l1.12-5.56h-.88l-1.11,5.56Zm-4.33-.59c-.62,0-1.02-.46-1.02-1.42,0-1.53,1.03-2.95,2.14-2.95.42,0,.81.24,1.13.82l-.5,2.48c-.55.72-1.17,1.06-1.75,1.06m-.32.73c.7,0,1.39-.39,1.93-.96h.04l-.09.82h.72l1.11-5.56h-.71l-.22.69h-.04c-.26-.5-.74-.83-1.34-.83-1.55,0-3.01,1.68-3.01,3.82,0,1.3.63,2.01,1.6,2.01m-4.68-4.99h.72l-.97,4.85h.87l.97-4.85h1.13l.14-.71h-1.12l.19-.95c.13-.65.43-1.06.94-1.06.26,0,.46.09.62.19l.31-.63c-.28-.16-.58-.27-.98-.27-.94,0-1.53.67-1.76,1.8l-.18.93-.74.06-.13.65Zm-4.53,4.99c.24,0,.4-.03.55-.09v-.67c-.11.03-.15.03-.19.03-.12,0-.19-.07-.19-.21,0-.04,0-.1.02-.22l1.43-7.13h-.88l-1.41,7.08c-.05.19-.07.35-.07.48,0,.46.25.72.74.72m-2.97,0c.24,0,.4-.03.55-.09v-.67c-.12.03-.15.03-.19.03-.12,0-.19-.07-.19-.21,0-.04,0-.1.02-.22l1.43-7.13h-.88l-1.41,7.08c-.05.19-.07.35-.07.48,0,.46.25.72.75.72m-1.79-5.69h-.87l-.79,3.93c-.68.7-1.21,1.01-1.65,1.01-.57,0-.82-.3-.82-.86,0-.19.03-.35.09-.65l.7-3.43h-.88l-.71,3.55c-.07.3-.09.5-.09.77,0,.84.38,1.38,1.31,1.38.68,0,1.32-.44,1.92-.98h.04l-.09.84h.72l1.11-5.56Zm-8.37.71h.72l-.97,4.85h.87l.97-4.85h1.13l.14-.71h-1.12l.19-.95c.13-.65.43-1.06.94-1.06.26,0,.46.09.62.19l.31-.63c-.28-.16-.58-.27-.98-.27-.94,0-1.53.67-1.76,1.8l-.18.93-.74.06-.13.65Zm-7.05,1.66c.29-1.1,1.09-1.81,1.9-1.81s1.08.61,1.08,1.24c0,.22-.02.39-.06.57h-2.92Zm-.97,1.01c0,1.49.87,2.32,2.18,2.32.72,0,1.35-.27,1.8-.59l-.34-.58c-.35.26-.81.48-1.25.48-.97,0-1.72-.61-1.51-2.04h3.62c.07-.21.19-.64.19-1.09,0-1.15-.47-2.01-1.71-2.01-1.45,0-2.97,1.42-2.97,3.51m-6.26,2.19h.87l.79-3.93c.7-.7,1.23-1.01,1.67-1.01.57,0,.82.3.82.86,0,.19-.03.35-.09.65l-.69,3.43h.87l.71-3.55c.07-.31.09-.5.09-.77,0-.86-.38-1.38-1.32-1.38-.68,0-1.28.4-1.91.94h-.05l.18-.69.55-2.69h-.88l-1.63,8.14Zm-2.23.14c.43,0,.8-.14,1.05-.25l-.19-.63c-.17.08-.37.17-.58.17-.53,0-.71-.23-.71-.69,0-.15.01-.27.03-.41l.65-3.18h1.43l.14-.71h-1.41l.31-1.53h-.74l-.41,1.53-.87.06-.13.65h.81l-.65,3.13c-.02.21-.06.39-.06.62,0,.69.35,1.23,1.33,1.23m-9.5,2.25c1.06,0,1.74-.83,2.32-1.92l3.27-6.03h-.87l-1.6,3.12c-.27.53-.56,1.13-.82,1.66h-.04c-.05-.53-.1-1.15-.18-1.66l-.43-3.12h-.87l.95,5.57-.21.4c-.38.77-.89,1.27-1.45,1.27-.15,0-.28-.03-.41-.1l-.29.65c.22.12.48.16.64.16m-2.42-7.36c.63,0,1.02.47,1.02,1.41,0,1.55-1.02,2.96-2.13,2.96-.43,0-.82-.24-1.13-.82l.53-2.64c.53-.56,1.2-.9,1.71-.9m-2.68,4.97l.23-.7h.03c.26.5.74.83,1.34.83,1.53,0,3-1.68,3-3.82,0-1.31-.63-2.01-1.6-2.01-.69,0-1.34.38-1.89.82h-.02l.25-1.1.45-2.17h-.88l-1.63,8.14h.72Zm-7.02-.59c-.62,0-1.02-.46-1.02-1.42,0-1.53,1.03-2.95,2.14-2.95.42,0,.81.24,1.13.82l-.5,2.48c-.56.72-1.17,1.06-1.75,1.06m2.44-4.29h-.03c-.27-.49-.72-.81-1.32-.81-1.54,0-3.01,1.68-3.01,3.82,0,1.3.63,2.01,1.6,2.01.7,0,1.4-.39,1.93-.96h.04l-.09.82h.72l1.65-8.14h-.88l-.43,2.17-.18,1.09Zm-9.17,1.69c.29-1.1,1.09-1.81,1.9-1.81s1.08.61,1.08,1.24c0,.22-.02.39-.06.57h-2.92Zm-.97,1.01c0,1.49.87,2.32,2.19,2.32.72,0,1.35-.27,1.8-.59l-.34-.58c-.35.26-.81.48-1.25.48-.97,0-1.72-.61-1.51-2.04h3.62c.07-.21.19-.64.19-1.09,0-1.15-.47-2.01-1.71-2.01-1.45,0-2.97,1.42-2.97,3.51m-5.65,2.19h.87l.3-1.41,1.28-1.3,1.06,2.71h.89l-1.34-3.24,2.22-2.32h-1.01l-2.85,2.94h-.02l1.1-5.53h-.88l-1.63,8.14Zm-3.03.14c.81,0,1.39-.34,1.79-.65l-.39-.57c-.34.26-.74.49-1.24.49-.88,0-1.32-.55-1.32-1.55,0-1.52,1.04-2.83,2.15-2.83.43,0,.7.16.98.5l.52-.55c-.33-.38-.78-.67-1.44-.67-1.61,0-3.1,1.53-3.1,3.6,0,1.42.83,2.23,2.05,2.23m-6.44-.73c-.62,0-1.02-.46-1.02-1.42,0-1.53,1.03-2.95,2.14-2.95.42,0,.81.24,1.13.82l-.5,2.48c-.55.72-1.17,1.06-1.75,1.06m-.32.73c.7,0,1.39-.39,1.93-.96h.04l-.09.82h.72l1.11-5.56h-.71l-.22.69h-.04c-.26-.5-.74-.83-1.34-.83-1.55,0-3.01,1.68-3.01,3.82,0,1.3.63,2.01,1.6,2.01m-7.54-.83l.59-2.93h1.33c1.11,0,1.71.52,1.71,1.27,0,1.17-.9,1.66-2.33,1.66h-1.3Zm.72-3.58l.5-2.53h1.04c1.13,0,1.64.4,1.64,1.09,0,.85-.67,1.44-2.1,1.44h-1.08Zm-1.74,4.28h2.4c1.79,0,3.12-.73,3.12-2.4,0-.86-.61-1.34-1.38-1.52v-.04c.83-.18,1.68-.86,1.68-1.88,0-1.09-.88-1.66-2.32-1.66h-2l-1.5,7.5Zm-5.62-2.54h2.49l.15-.67h-2.5l-.14.67Zm-6.35,1.95c-.62,0-1.02-.46-1.02-1.42,0-1.53,1.03-2.95,2.14-2.95.42,0,.81.24,1.13.82l-.5,2.48c-.56.72-1.17,1.06-1.75,1.06m2.44-4.29h-.03c-.27-.49-.72-.81-1.32-.81-1.55,0-3.01,1.68-3.01,3.82,0,1.3.63,2.01,1.6,2.01.7,0,1.39-.39,1.93-.96h.04l-.09.82h.72l1.65-8.14h-.88l-.43,2.17-.18,1.09Zm-9.17,1.69c.29-1.1,1.09-1.81,1.9-1.81s1.08.61,1.08,1.24c0,.22-.02.39-.06.57h-2.92Zm-.97,1.01c0,1.49.87,2.32,2.18,2.32.72,0,1.35-.27,1.8-.59l-.34-.58c-.35.26-.81.48-1.25.48-.97,0-1.72-.61-1.51-2.04h3.62c.07-.21.19-.64.19-1.09,0-1.15-.47-2.01-1.71-2.01-1.45,0-2.97,1.42-2.97,3.51m-4.15,2.19h.87l.7-3.51c.47-.9,1.09-1.4,1.63-1.4.21,0,.37.03.48.09l.31-.78c-.16-.07-.32-.1-.53-.1-.68,0-1.28.53-1.73,1.2h-.04l.12-1.06h-.72l-1.1,5.56Zm-.93-5.56h-.87l-.79,3.93c-.68.7-1.21,1.01-1.65,1.01-.57,0-.82-.3-.82-.86,0-.19.03-.35.09-.65l.7-3.43h-.88l-.71,3.55c-.07.3-.09.5-.09.77,0,.84.38,1.38,1.31,1.38.68,0,1.32-.44,1.92-.98h.04l-.09.84h.72l1.11-5.56Zm-8.52,5.69c1.2,0,2.08-.67,2.08-1.71,0-.61-.31-1.03-1.3-1.58-.5-.28-.98-.52-.98-.99s.46-.87,1.05-.87c.5,0,.86.24,1.15.55l.5-.49c-.41-.43-.96-.74-1.63-.74-1.04,0-1.91.67-1.91,1.66,0,.63.41,1.05,1.27,1.52.78.42,1.02.65,1.02,1.05,0,.5-.54.93-1.18.93-.58,0-1.09-.33-1.43-.81l-.55.44c.38.58,1.17,1.05,1.91,1.05m-7.73-.14h.87l.79-3.93c.7-.7,1.24-1.01,1.67-1.01.57,0,.83.3.83.86,0,.19-.03.35-.09.65l-.69,3.43h.87l.71-3.55c.07-.31.09-.5.09-.77,0-.86-.38-1.38-1.31-1.38-.7,0-1.32.42-1.95.97h-.04l.08-.83h-.72l-1.1,5.56Zm-3.04,0h.89l1.5-7.5h-.89l-1.5,7.5Zm-3.85-2.54h2.49l.15-.67h-2.5l-.14.67Zm-3.25,2.68c.9,0,1.6-.39,2.15-.87l-.4-.57c-.49.41-.98.67-1.59.67-1.35,0-1.91-.98-1.91-2.35,0-1.82,1.13-3.9,2.92-3.9.57,0,.97.33,1.27.81l.62-.47c-.37-.64-.98-1.11-1.84-1.11-2.32,0-3.88,2.39-3.88,4.75,0,1.8.95,3.03,2.66,3.03m-6-.14h.89l1.5-7.5h-.89l-1.5,7.5Zm-5.98-.73l1.21-6.05h.62c1.51,0,2.31.85,2.31,2.27,0,2.23-1.21,3.79-3.16,3.79h-.98Zm-1.03.73h2.01c2.54,0,4.06-1.85,4.06-4.58,0-1.84-1.1-2.93-3.18-2.93h-1.4l-1.5,7.5Zm-5.59,0h.89l.69-3.4h2.75l.15-.75h-2.76l.52-2.61h3.26l.15-.74h-4.14l-1.5,7.5Z"></path></g></svg> 